<!DOCTYPE svg PUBLIC "-//W3C//DTD SVG 1.1//EN" "http://www.w3.org/Graphics/SVG/1.1/DTD/svg11.dtd">
<!-- Uploaded to: SVG Repo, www.svgrepo.com, Transformed by: SVG Repo Mixer Tools -->
<svg fill="#ffffff" width="800px" height="800px" viewBox="0 0 24 24" xmlns="http://www.w3.org/2000/svg">
<g id="SVGRepo_bgCarrier" stroke-width="0"/>
<g id="SVGRepo_tracerCarrier" stroke-linecap="round" stroke-linejoin="round"/>
<g id="SVGRepo_iconCarrier"> <g data-name="Layer 2"> <g data-name="skip-forward"> <rect width="24" height="24" opacity="0"/> <path d="M16 6a1 1 0 0 0-1 1v3.82l-.14-.15-5.1-4.21a2.1 2.1 0 0 0-2.21-.26 1.76 1.76 0 0 0-1 1.59v8.42a1.76 1.76 0 0 0 1 1.59 2.23 2.23 0 0 0 .91.2 2.06 2.06 0 0 0 1.3-.46l5.1-4.21.14-.15V17a1 1 0 0 0 2 0V7a1 1 0 0 0-1-1z"/> </g> </g> </g>
</svg>